<?xml version="1.0" encoding="utf-8"?>
<!-- Designed by Vexels.com - 2020 All Rights Reserved - https://vexels.com/terms-and-conditions/  -->
<svg version="1.1" id="Capa_1" xmlns="http://www.w3.org/2000/svg" xmlns:xlink="http://www.w3.org/1999/xlink" x="0px" y="0px"
	 viewBox="0 0 1200 1200" enable-background="new 0 0 1200 1200" xml:space="preserve">
<g>
	<path fill="#65676B" d="M592.721,1005.519c17.686,0,32.035-14.348,32.035-32.033V507.301c0-17.685-14.35-32.033-32.035-32.033
		s-32.032,14.348-32.032,32.033v466.186C560.69,991.171,575.036,1005.519,592.721,1005.519z"/>
	<path fill="#65676B" d="M766.941,980.869c0.377,0,0.753,0,1.126,0c17.186,0,31.409-13.598,32.032-30.906l14.849-416.843
		c0.626-17.685-13.22-32.492-30.906-33.159c-16.225-0.376-32.493,13.222-33.158,30.907L736.035,947.71
		C735.409,965.395,749.255,980.201,766.941,980.869z"/>
	<path fill="#65676B" d="M417.376,980.869c0.377,0,0.749,0,1.126,0c17.686-0.668,31.532-15.474,30.906-33.159l-14.849-416.843
		c-0.623-17.685-16.225-31.449-33.158-30.907c-17.686,0.667-31.532,15.474-30.906,33.159l14.849,416.843
		C385.967,967.271,400.194,980.869,417.376,980.869z"/>
	<path fill="#65676B" d="M1017.114,206.284H853.978C835.22,117.861,733.929,50,611.825,50
		c-122.147,0-223.437,67.861-242.195,156.284H182.886c-36.205,0-65.65,29.447-65.65,65.65v54.557c0,36.203,29.445,65.65,65.65,65.65
		h12.244l70.005,634.733C272.851,1097.071,330.662,1150,399.648,1150h417.844c71.242,0,130.594-57.017,135.14-129.841
		l39.164-628.017h25.318c36.205,0,65.65-29.447,65.65-65.65v-54.557C1082.764,235.731,1053.319,206.284,1017.114,206.284z
		 M611.825,114.065c83.251,0,155.577,39.916,175.845,92.178H435.938C456.209,153.981,528.531,114.065,611.825,114.065z
		 M888.649,1016.154c-2.421,39.124-33.703,69.78-71.157,69.78H399.648c-36.244,0-66.692-28.404-70.861-66.067l-69.24-627.725h668.06
		L888.649,1016.154z M1018.697,326.491c0,0.875-0.707,1.584-1.583,1.584l-835.811-1.584l1.583-56.141l835.811,1.584V326.491z"/>
</g>
</svg>
